<svg viewBox="0 0 500 450" xmlns="http://www.w3.org/2000/svg">
  <!-- Large lemon holding yellow product plaquette -->
  
  <!-- Lemon body -->
  <ellipse cx="150" cy="220" rx="90" ry="120" fill="#FFD700" stroke="#FFA500" stroke-width="3"/>
  
  <!-- Lemon top point -->
  <path d="M 150 80 Q 135 130 150 160 Q 165 130 150 80" fill="#FFD700" stroke="#FFA500" stroke-width="3"/>
  
  <!-- Eyes - cool expression -->
  <circle cx="120" cy="200" r="10" fill="#000"/>
  <circle cx="180" cy="200" r="10" fill="#000"/>
  <circle cx="122" cy="198" r="4" fill="#ffffff"/>
  <circle cx="182" cy="198" r="4" fill="#ffffff"/>
  
  <!-- Cool eyebrows -->
  <path d="M 105 180 Q 120 175 135 180" stroke="#333" stroke-width="2.5" fill="none" stroke-linecap="round"/>
  <path d="M 165 180 Q 180 175 195 180" stroke="#333" stroke-width="2.5" fill="none" stroke-linecap="round"/>
  
  <!-- Confident smile -->
  <path d="M 125 260 Q 150 285 175 260" stroke="#000" stroke-width="3" fill="none" stroke-linecap="round"/>
  
  <!-- Left arm relaxed -->
  <rect x="50" y="210" width="45" height="15" fill="#FFD700" stroke="#FFA500" stroke-width="2" rx="7"/>
  <circle cx="50" cy="217" r="12" fill="#FFD700" stroke="#FFA500" stroke-width="2"/>
  
  <!-- Right arm extended holding product -->
  <rect x="225" y="210" width="80" height="15" fill="#FFD700" stroke="#FFA500" stroke-width="2" rx="7"/>
  <circle cx="300" cy="217" r="14" fill="#FFD700" stroke="#FFA500" stroke-width="2"/>
  
  <!-- JAUNE MOUSSEUX product - large plaquette -->
  <g transform="translate(320, 120)">
    <!-- Main product body -->
    <rect x="0" y="0" width="130" height="180" fill="#FFD700" stroke="#FFA500" stroke-width="4" rx="8"/>
    
    <!-- Inner highlight -->
    <rect x="8" y="8" width="114" height="164" fill="#FFFF99" stroke="#FFD700" stroke-width="2" rx="6" opacity="0.7"/>
    
    <!-- Glossy shine effect -->
    <ellipse cx="40" cy="35" rx="25" ry="35" fill="#FFFFCC" opacity="0.6"/>
    
    <!-- Text with shadow effect -->
    <text x="65" y="60" font-size="28" font-weight="bold" fill="#FFA500" text-anchor="middle" font-family="Arial" stroke="#666" stroke-width="1">JAUNE</text>
    <text x="65" y="100" font-size="28" font-weight="bold" fill="#FFA500" text-anchor="middle" font-family="Arial" stroke="#666" stroke-width="1">MOUSSEUX</text>
    
    <!-- Decorative elements -->
    <circle cx="20" cy="140" r="4" fill="#FFA500" opacity="0.5"/>
    <circle cx="110" cy="150" r="4" fill="#FFA500" opacity="0.5"/>
  </g>
  
  <!-- Legs -->
  <rect x="138" y="330" width="12" height="90" fill="#FFD700" stroke="#FFA500" stroke-width="2" rx="6"/>
  <rect x="160" y="330" width="12" height="90" fill="#FFD700" stroke="#FFA500" stroke-width="2" rx="6"/>
  
  <!-- Shoes -->
  <ellipse cx="144" cy="425" rx="14" ry="10" fill="#333" stroke="#000" stroke-width="1"/>
  <ellipse cx="166" cy="425" rx="14" ry="10" fill="#333" stroke="#000" stroke-width="1"/>
  
  <!-- Leaf decoration -->
  <ellipse cx="220" cy="90" rx="30" ry="50" fill="#32CD32" stroke="#228B22" stroke-width="2.5" transform="rotate(-40 220 90)"/>
  <path d="M 220 60 Q 235 90 220 120" stroke="#228B22" stroke-width="2" fill="none"/>
</svg>